<svg width="223" height="53" viewBox="0 0 223 53" fill="none" xmlns="http://www.w3.org/2000/svg">
<path d="M0 48.0312H9.9375L21.5312 36.4375L33.125 48.0312H43.0625V38.0938L31.4688 26.5L43.0625 14.9062V4.96875H33.125L21.5312 16.5625L9.9375 4.96875H0V14.9062L11.5938 26.5L0 38.0938V48.0312Z" fill="#44B149"/>
<path d="M58.3234 5.84091H61.0989V10.9485C61.0989 11.6111 61.2136 12.1361 61.443 12.5235C61.6775 12.9109 62.0241 13.1888 62.4829 13.357C62.9416 13.5252 63.5125 13.6093 64.1956 13.6093C64.5014 13.6093 64.8302 13.5991 65.1819 13.5787C65.5387 13.5532 65.8981 13.5201 66.26 13.4793C66.6219 13.4334 66.9685 13.3799 67.2999 13.3187C67.6312 13.2525 67.9268 13.1811 68.1868 13.1046V15.4138C67.9268 15.4953 67.6363 15.5692 67.3152 15.6355C66.994 15.7018 66.655 15.7578 66.2982 15.8037C65.9414 15.8496 65.5846 15.8853 65.2278 15.9107C64.871 15.9362 64.5269 15.949 64.1956 15.949C62.9977 15.949 61.9578 15.7782 61.076 15.4367C60.1992 15.0901 59.5213 14.5497 59.0421 13.8157C58.563 13.0817 58.3234 12.126 58.3234 10.9485V5.84091ZM67.7204 5.84091H70.5112V21.5H67.7204V5.84091ZM73.9634 21.5V5.84091H84.1479V8.21883H76.8001V12.47H83.6203V14.8479H76.8001V19.1221H84.2091V21.5H73.9634ZM87.0419 21.5V5.84091H92.9141C94.1171 5.84091 95.1264 6.06519 95.9419 6.51376C96.7626 6.96233 97.3819 7.57911 97.7999 8.3641C98.223 9.144 98.4345 10.0309 98.4345 11.0249C98.4345 12.0291 98.223 12.9211 97.7999 13.701C97.3768 14.4809 96.7524 15.0952 95.9266 15.5437C95.1009 15.9872 94.0839 16.2089 92.8759 16.2089H88.984V13.8769H92.4936C93.197 13.8769 93.773 13.7546 94.2216 13.5099C94.6701 13.2652 95.0015 12.9288 95.2156 12.5006C95.4347 12.0724 95.5443 11.5805 95.5443 11.0249C95.5443 10.4693 95.4347 9.97997 95.2156 9.55688C95.0015 9.1338 94.6676 8.80502 94.2139 8.57054C93.7654 8.33097 93.1868 8.21118 92.4783 8.21118H89.8786V21.5H87.0419ZM100.898 21.5V5.84091H103.735V12.47H110.991V5.84091H113.836V21.5H110.991V14.8479H103.735V21.5H100.898ZM119.757 5.84091V21.5H116.921V5.84091H119.757ZM132.899 5.84091V8.21883H125.666V21.5H122.829V5.84091H132.899ZM138.135 5.84091V21.5H135.298V5.84091H138.135ZM141.206 21.5V5.84091H147.201C148.333 5.84091 149.273 6.01932 150.022 6.37613C150.777 6.72785 151.34 7.20955 151.712 7.82123C152.089 8.43292 152.278 9.12616 152.278 9.90096C152.278 10.5381 152.156 11.0835 151.911 11.5372C151.666 11.9858 151.337 12.3502 150.925 12.6306C150.512 12.9109 150.05 13.1123 149.541 13.2346V13.3876C150.096 13.4181 150.629 13.5889 151.139 13.8998C151.654 14.2057 152.074 14.639 152.4 15.1997C152.727 15.7604 152.89 16.4383 152.89 17.2335C152.89 18.044 152.693 18.7729 152.301 19.4203C151.908 20.0625 151.317 20.5697 150.527 20.9418C149.737 21.3139 148.743 21.5 147.545 21.5H141.206ZM144.043 19.1297H147.094C148.124 19.1297 148.865 18.9335 149.319 18.541C149.778 18.1434 150.007 17.6337 150.007 17.0118C150.007 16.5479 149.892 16.1299 149.663 15.7578C149.434 15.3806 149.107 15.085 148.684 14.8709C148.261 14.6517 147.757 14.5421 147.17 14.5421H144.043V19.1297ZM144.043 12.5006H146.849C147.339 12.5006 147.78 12.4114 148.172 12.233C148.565 12.0495 148.873 11.7921 149.097 11.4607C149.327 11.1243 149.441 10.7267 149.441 10.268C149.441 9.66138 149.227 9.16184 148.799 8.76934C148.376 8.37684 147.746 8.1806 146.91 8.1806H144.043V12.5006Z" fill="black"/>
<path d="M57.857 47.5V31.8409H67.9268V34.2188H60.6937V37.8889H63.7139C64.9117 37.8889 65.9389 38.0852 66.7952 38.4777C67.6567 38.8651 68.3168 39.413 68.7755 40.1216C69.2343 40.8301 69.4637 41.6635 69.4637 42.6218C69.4637 43.5852 69.2343 44.4339 68.7755 45.168C68.3168 45.8969 67.6567 46.4678 66.7952 46.8807C65.9389 47.2936 64.9117 47.5 63.7139 47.5H57.857ZM60.6937 45.1756H63.7139C64.3459 45.1756 64.8812 45.0558 65.3195 44.8162C65.7579 44.5767 66.0892 44.2606 66.3135 43.8681C66.5429 43.4756 66.6576 43.05 66.6576 42.5912C66.6576 41.9286 66.4027 41.3653 65.893 40.9015C65.3884 40.4325 64.662 40.198 63.7139 40.198H60.6937V45.1756ZM71.9448 47.5V31.8409H82.1294V34.2188H74.7815V38.47H81.6018V40.8479H74.7815V45.1221H82.1905V47.5H71.9448ZM90.4903 47.7141C89.3893 47.7141 88.4106 47.5255 87.5542 47.1483C86.703 46.7711 86.0301 46.246 85.5357 45.5732C85.0412 44.9003 84.7787 44.123 84.7481 43.2412H87.623C87.6485 43.6642 87.7887 44.0338 88.0436 44.3498C88.2984 44.6608 88.6374 44.9029 89.0605 45.0762C89.4836 45.2495 89.9576 45.3362 90.4827 45.3362C91.0434 45.3362 91.5404 45.2393 91.9736 45.0456C92.4069 44.8468 92.7459 44.5716 92.9906 44.2198C93.2352 43.8681 93.355 43.4629 93.3499 43.0041C93.355 42.5301 93.2327 42.1121 92.9829 41.7502C92.7331 41.3883 92.3712 41.1054 91.8972 40.9015C91.4282 40.6976 90.8624 40.5956 90.1998 40.5956H88.8158V38.4089H90.1998C90.7452 38.4089 91.2218 38.3146 91.6296 38.126C92.0424 37.9374 92.3661 37.6723 92.6006 37.3308C92.8351 36.9841 92.9498 36.584 92.9447 36.1303C92.9498 35.6869 92.8504 35.302 92.6465 34.9758C92.4477 34.6445 92.1648 34.387 91.7978 34.2035C91.4359 34.02 91.0102 33.9283 90.5209 33.9283C90.0417 33.9283 89.5983 34.0149 89.1905 34.1882C88.7827 34.3616 88.4539 34.6088 88.2041 34.9299C87.9544 35.2459 87.8218 35.6231 87.8065 36.0615H85.0769C85.0973 35.1848 85.3496 34.4151 85.8339 33.7524C86.3232 33.0847 86.9757 32.5647 87.7912 32.1926C88.6068 31.8154 89.5218 31.6268 90.5362 31.6268C91.5811 31.6268 92.4885 31.8231 93.2582 32.2156C94.033 32.603 94.6319 33.1254 95.055 33.783C95.4781 34.4406 95.6896 35.1669 95.6896 35.9621C95.6947 36.844 95.4347 37.5831 94.9097 38.1795C94.3898 38.7759 93.7067 39.1658 92.8606 39.3493V39.4717C93.9616 39.6246 94.8052 40.0324 95.3914 40.695C95.9827 41.3526 96.2758 42.1707 96.2707 43.1494C96.2707 44.0261 96.0209 44.8111 95.5214 45.5044C95.027 46.1925 94.3439 46.7328 93.4723 47.1253C92.6057 47.5178 91.6117 47.7141 90.4903 47.7141ZM99.0481 47.5V31.8409H109.118V34.2188H101.885V37.8889H104.905C106.103 37.8889 107.13 38.0852 107.986 38.4777C108.848 38.8651 109.508 39.413 109.967 40.1216C110.425 40.8301 110.655 41.6635 110.655 42.6218C110.655 43.5852 110.425 44.4339 109.967 45.168C109.508 45.8969 108.848 46.4678 107.986 46.8807C107.13 47.2936 106.103 47.5 104.905 47.5H99.0481ZM101.885 45.1756H104.905C105.537 45.1756 106.072 45.0558 106.511 44.8162C106.949 44.5767 107.28 44.2606 107.505 43.8681C107.734 43.4756 107.849 43.05 107.849 42.5912C107.849 41.9286 107.594 41.3653 107.084 40.9015C106.579 40.4325 105.853 40.198 104.905 40.198H101.885V45.1756ZM115.147 47.5H112.119L117.632 31.8409H121.134L126.654 47.5H123.626L119.444 35.0522H119.322L115.147 47.5ZM115.246 41.3602H123.504V43.6387H115.246V41.3602ZM128.717 47.5V31.8409H134.589C135.792 31.8409 136.801 32.0652 137.617 32.5138C138.437 32.9623 139.057 33.5791 139.475 34.3641C139.898 35.144 140.109 36.0309 140.109 37.0249C140.109 38.0291 139.898 38.9211 139.475 39.701C139.052 40.4809 138.427 41.0952 137.601 41.5437C136.776 41.9872 135.759 42.2089 134.551 42.2089H130.659V39.8769H134.168C134.872 39.8769 135.448 39.7546 135.896 39.5099C136.345 39.2652 136.676 38.9288 136.89 38.5006C137.109 38.0724 137.219 37.5805 137.219 37.0249C137.219 36.4693 137.109 35.98 136.89 35.5569C136.676 35.1338 136.342 34.805 135.889 34.5705C135.44 34.331 134.862 34.2112 134.153 34.2112H131.553V47.5H128.717ZM144.798 31.8409V33.4007C144.798 33.8493 144.712 34.3157 144.538 34.7999C144.37 35.2791 144.138 35.7378 143.842 36.1762C143.547 36.6095 143.21 36.9816 142.833 37.2925L141.549 36.4591C141.829 36.036 142.074 35.5798 142.283 35.0905C142.492 34.596 142.596 34.0379 142.596 33.416V31.8409H144.798ZM153.165 47.7141C151.885 47.7141 150.767 47.4108 149.808 46.8042C148.85 46.1925 148.106 45.3413 147.576 44.2504C147.046 43.1545 146.78 41.8776 146.78 40.4198V39.3034C146.78 37.7691 147.048 36.426 147.583 35.274C148.124 34.122 148.878 33.2274 149.847 32.5902C150.815 31.948 151.947 31.6268 153.241 31.6268C154.404 31.6268 155.428 31.8435 156.315 32.2767C157.207 32.7049 157.916 33.3217 158.441 34.1271C158.971 34.9325 159.274 35.8908 159.351 37.002H156.529C156.493 36.3852 156.325 35.8525 156.025 35.404C155.729 34.9554 155.339 34.6113 154.855 34.3717C154.376 34.1322 153.838 34.0124 153.241 34.0124C152.512 34.0124 151.87 34.2239 151.315 34.647C150.764 35.065 150.333 35.6537 150.022 36.4132C149.717 37.1677 149.564 38.0444 149.564 39.0435V40.6644C149.564 41.5973 149.714 42.4179 150.015 43.1265C150.315 43.835 150.736 44.3881 151.276 44.7857C151.817 45.1782 152.446 45.3744 153.165 45.3744C153.766 45.3744 154.312 45.2572 154.801 45.0227C155.296 44.7882 155.696 44.4518 156.002 44.0134C156.307 43.575 156.478 43.0526 156.514 42.446H159.351C159.294 43.5368 159.001 44.4773 158.471 45.2674C157.941 46.0523 157.222 46.6564 156.315 47.0795C155.408 47.5025 154.358 47.7141 153.165 47.7141ZM148.386 40.9932V38.6382H154.885V40.9932H148.386ZM161.96 47.5V31.8409H167.832C169.035 31.8409 170.044 32.0652 170.86 32.5138C171.68 32.9623 172.3 33.5791 172.718 34.3641C173.141 35.144 173.352 36.0309 173.352 37.0249C173.352 38.0291 173.141 38.9211 172.718 39.701C172.295 40.4809 171.67 41.0952 170.844 41.5437C170.019 41.9872 169.002 42.2089 167.794 42.2089H163.902V39.8769H167.411C168.115 39.8769 168.691 39.7546 169.139 39.5099C169.588 39.2652 169.919 38.9288 170.133 38.5006C170.353 38.0724 170.462 37.5805 170.462 37.0249C170.462 36.4693 170.353 35.98 170.133 35.5569C169.919 35.1338 169.585 34.805 169.132 34.5705C168.683 34.331 168.105 34.2112 167.396 34.2112H164.796V47.5H161.96ZM175.816 47.5V31.8409H178.653V38.47H185.909V31.8409H188.753V47.5H185.909V40.8479H178.653V47.5H175.816ZM191.839 31.8409H194.652V42.5148H194.798L202.161 31.8409H204.707V47.5H201.87V36.8338H201.74L194.354 47.5H191.839V31.8409ZM207.798 31.8409H210.612V42.5148H210.757L218.12 31.8409H220.666V47.5H217.829V36.8338H217.699L210.313 47.5H207.798V31.8409ZM215.75 27.8038H217.822C217.822 28.6958 217.498 29.4197 216.851 29.9753C216.208 30.5258 215.337 30.801 214.236 30.801C213.145 30.801 212.276 30.5258 211.628 29.9753C210.986 29.4197 210.668 28.6958 210.673 27.8038H212.729C212.729 28.1708 212.842 28.4996 213.066 28.7901C213.295 29.0756 213.685 29.2183 214.236 29.2183C214.776 29.2183 215.161 29.0756 215.39 28.7901C215.625 28.5047 215.745 28.1759 215.75 27.8038Z" fill="#44B149"/>
</svg>
